<svg width="730" height="764" viewBox="0 0 730 764" fill="none" xmlns="http://www.w3.org/2000/svg">
<path fill-rule="evenodd" clip-rule="evenodd" d="M365 264.071H266.554C258.35 263.574 239.934 260.596 231.897 252.655C221.852 242.728 124.41 221.385 71.1689 312.712C43.5437 377.567 -9.0948 531.301 1.35253 627.393C14.4117 747.507 126.419 684.968 149.524 652.706C152.835 648.082 156.364 642.866 160.113 637.324C182.523 604.197 212.832 559.394 251.988 559.394H365H478.012C517.168 559.394 547.477 604.197 569.887 637.324C573.636 642.866 577.165 648.082 580.476 652.706C603.581 684.968 715.588 747.507 728.647 627.393C739.095 531.301 686.456 377.567 658.831 312.712C605.59 221.385 508.148 242.728 498.103 252.655C490.066 260.596 471.65 263.574 463.446 264.071L365 264.071Z" fill="white"/>
<path fill-rule="evenodd" clip-rule="evenodd" d="M365 322.336H270.983C263.148 321.979 245.56 319.841 237.885 314.14C228.292 307.014 135.234 291.693 84.3882 357.254C58.0058 403.813 7.73551 514.175 17.7128 583.158C30.1845 669.386 137.153 624.49 159.218 601.33C162.381 598.01 165.75 594.266 169.331 590.287C190.733 566.506 219.678 534.343 257.072 534.343H365H472.928C510.322 534.343 539.268 566.506 560.669 590.287C564.25 594.266 567.62 598.01 570.782 601.33C592.847 624.49 699.816 669.386 712.287 583.158C722.265 514.175 671.994 403.813 645.612 357.254C594.766 291.693 501.708 307.014 492.115 314.14C484.44 319.841 466.852 321.979 459.017 322.336H365Z" fill="#48C0FB"/>
<path fill-rule="evenodd" clip-rule="evenodd" d="M364.999 270.523H223.86C171.623 270.523 66.5471 284.024 64.1361 409.499C61.1225 566.343 101.902 570.658 131.441 565.35C154.069 561.285 160.521 551.891 167.635 541.534C169.207 539.246 170.81 536.912 172.628 534.577C183.502 520.607 195.23 516.212 228.882 516.212H364.999V270.523ZM364.999 270.523H506.139C558.376 270.523 663.452 284.024 665.863 409.499C668.876 566.343 628.097 570.658 598.558 565.35C575.93 561.285 569.478 551.891 562.364 541.534C560.792 539.246 559.189 536.912 557.371 534.577C546.496 520.607 534.769 516.212 501.116 516.212H364.999V270.523Z" fill="#1A243D"/>
<path fill-rule="evenodd" clip-rule="evenodd" d="M193.221 346.055C193.221 339.427 187.849 334.055 181.221 334.055H171.066C164.439 334.055 159.066 339.427 159.066 346.055V364.74C159.066 371.367 153.694 376.74 147.066 376.74H127.871C121.243 376.74 115.871 382.113 115.871 388.74L115.871 398.491C115.871 405.119 121.243 410.491 127.871 410.491H147.066C153.694 410.491 159.066 415.864 159.066 422.491V441.177C159.066 447.804 164.439 453.177 171.066 453.177H181.221C187.849 453.177 193.221 447.804 193.221 441.177V422.491C193.221 415.864 198.594 410.491 205.221 410.491H224.417C231.044 410.491 236.417 405.119 236.417 398.491V388.74C236.417 382.113 231.044 376.74 224.417 376.74H205.221C198.594 376.74 193.221 371.367 193.221 364.74V346.055Z" fill="white"/>
<path fill-rule="evenodd" clip-rule="evenodd" d="M561.892 365.821C575.762 365.821 587.005 354.71 587.005 341.004C587.005 327.298 575.762 316.187 561.892 316.187C548.022 316.187 536.778 327.298 536.778 341.004C536.778 354.71 548.022 365.821 561.892 365.821ZM587.005 390.638C587.005 404.344 598.249 415.455 612.119 415.455C625.989 415.455 637.233 404.344 637.233 390.638C637.233 376.932 625.989 365.821 612.119 365.821C598.249 365.821 587.005 376.932 587.005 390.638ZM587.005 440.272C587.005 453.978 575.762 465.089 561.892 465.089C548.022 465.089 536.778 453.978 536.778 440.272C536.778 426.566 548.022 415.455 561.892 415.455C575.762 415.455 587.005 426.566 587.005 440.272ZM486.55 390.638C486.55 404.344 497.794 415.455 511.664 415.455C525.534 415.455 536.778 404.344 536.778 390.638C536.778 376.932 525.534 365.821 511.664 365.821C497.794 365.821 486.55 376.932 486.55 390.638Z" fill="white"/>
<ellipse cx="260.526" cy="486.928" rx="60.2731" ry="59.561" fill="#1A243D"/>
<ellipse cx="260.526" cy="486.928" rx="40.1821" ry="39.7073" fill="white"/>
<ellipse cx="469.473" cy="486.928" rx="60.2731" ry="59.561" fill="#1A243D"/>
<ellipse cx="469.473" cy="486.928" rx="40.1821" ry="39.7073" fill="white"/>
<path d="M233 438.444L405.388 0L376.657 300.793L510 278.215L294.146 764L344.242 415.138L233 438.444Z" fill="#48C0FB"/>
</svg>
