<svg width="730" height="686" viewBox="0 0 730 686" fill="none" xmlns="http://www.w3.org/2000/svg">
<path fill-rule="evenodd" clip-rule="evenodd" d="M365 231.071H266.554C258.35 230.574 239.934 227.596 231.897 219.655C221.852 209.728 124.41 188.385 71.1689 279.712C43.5437 344.567 -9.0948 498.301 1.35253 594.393C14.4117 714.507 126.419 651.968 149.524 619.706C152.835 615.082 156.364 609.866 160.113 604.324C182.523 571.197 212.832 526.394 251.988 526.394H365H478.012C517.168 526.394 547.477 571.197 569.887 604.324C573.636 609.866 577.165 615.082 580.476 619.706C603.581 651.968 715.588 714.507 728.647 594.393C739.095 498.301 686.456 344.567 658.831 279.712C605.59 188.385 508.148 209.728 498.103 219.655C490.066 227.596 471.65 230.574 463.446 231.071L365 231.071Z" fill="#47C3FF"/>
<path fill-rule="evenodd" clip-rule="evenodd" d="M365 289.335H270.983C263.148 288.979 245.56 286.841 237.885 281.14C228.292 274.014 135.234 258.692 84.3882 324.254C58.0058 370.813 7.73551 481.175 17.7128 550.157C30.1845 636.385 137.153 591.49 159.218 568.329C162.381 565.01 165.75 561.266 169.331 557.287C190.733 533.506 219.678 501.342 257.072 501.342H365H472.928C510.322 501.342 539.268 533.506 560.669 557.287C564.25 561.266 567.62 565.01 570.782 568.329C592.847 591.49 699.816 636.385 712.287 550.157C722.265 481.175 671.994 370.813 645.612 324.254C594.766 258.692 501.708 274.014 492.115 281.14C484.44 286.841 466.852 288.979 459.017 289.335H365Z" fill="#007CB9"/>
<path fill-rule="evenodd" clip-rule="evenodd" d="M364.999 237.523H223.86C171.623 237.523 66.5472 251.024 64.1363 376.499C61.1226 533.343 101.902 537.657 131.441 532.35C154.069 528.285 160.521 518.891 167.635 508.534C169.207 506.246 170.81 503.911 172.628 501.577C183.503 487.607 195.23 483.212 228.883 483.212H364.999V237.523ZM365 237.523H506.139C558.376 237.523 663.452 251.024 665.863 376.499C668.876 533.343 628.097 537.657 598.558 532.35C575.93 528.285 569.478 518.891 562.364 508.534C560.792 506.246 559.189 503.911 557.371 501.577C546.497 487.607 534.769 483.212 501.117 483.212H365V237.523Z" fill="#1A243D"/>
<path fill-rule="evenodd" clip-rule="evenodd" d="M193.221 313.055C193.221 306.428 187.849 301.055 181.221 301.055H171.066C164.439 301.055 159.066 306.428 159.066 313.055V331.74C159.066 338.368 153.694 343.74 147.066 343.74H127.871C121.243 343.74 115.871 349.113 115.871 355.74L115.871 365.491C115.871 372.119 121.243 377.491 127.871 377.491H147.066C153.694 377.491 159.066 382.864 159.066 389.491V408.177C159.066 414.804 164.439 420.177 171.066 420.177H181.221C187.849 420.177 193.221 414.804 193.221 408.177V389.491C193.221 382.864 198.594 377.491 205.221 377.491H224.417C231.044 377.491 236.417 372.119 236.417 365.491V355.74C236.417 349.113 231.044 343.74 224.417 343.74H205.221C198.594 343.74 193.221 338.368 193.221 331.74V313.055Z" fill="white"/>
<path fill-rule="evenodd" clip-rule="evenodd" d="M561.892 332.821C575.762 332.821 587.005 321.71 587.005 308.004C587.005 294.298 575.762 283.187 561.892 283.187C548.022 283.187 536.778 294.298 536.778 308.004C536.778 321.71 548.022 332.821 561.892 332.821ZM587.005 357.638C587.005 371.344 598.249 382.455 612.119 382.455C625.989 382.455 637.233 371.344 637.233 357.638C637.233 343.932 625.989 332.821 612.119 332.821C598.249 332.821 587.005 343.932 587.005 357.638ZM587.005 407.272C587.005 420.978 575.762 432.089 561.892 432.089C548.022 432.089 536.778 420.978 536.778 407.272C536.778 393.566 548.022 382.455 561.892 382.455C575.762 382.455 587.005 393.566 587.005 407.272ZM486.55 357.638C486.55 371.344 497.794 382.455 511.664 382.455C525.534 382.455 536.778 371.344 536.778 357.638C536.778 343.932 525.534 332.821 511.664 332.821C497.794 332.821 486.55 343.932 486.55 357.638Z" fill="white"/>
<ellipse cx="260.526" cy="453.928" rx="60.2731" ry="59.561" fill="#1A243D"/>
<ellipse cx="260.526" cy="453.928" rx="40.1821" ry="39.7073" fill="white"/>
<ellipse cx="469.473" cy="453.928" rx="60.2731" ry="59.561" fill="#1A243D"/>
<ellipse cx="469.473" cy="453.928" rx="40.1821" ry="39.7073" fill="white"/>
<path d="M247 393.682L401.963 0L376.136 270.084L496 249.811L301.965 686L346.997 372.755L247 393.682Z" fill="#FEF234"/>
</svg>
