<svg width="800" height="152" viewBox="0 0 800 152" fill="none" xmlns="http://www.w3.org/2000/svg">
<path d="M758.621 131V121.5H786.207V112H758.621V102.5H751.724V74H765.517V102.5H786.207V74H800V121.5H793.103V131H758.621Z" fill="white"/>
<path d="M703.448 121.5V112H696.552V102.5H703.448V93H731.035V83.5H703.448V74H737.931V83.5H744.828V121.5H703.448ZM710.345 112H731.035V102.5H710.345V112Z" fill="white"/>
<path d="M648.276 121.5V112H662.069V64.5H655.172V55H675.862V112H689.655V121.5H648.276Z" fill="white"/>
<path d="M586.207 121.5V55H627.586V64.5H634.483V93H627.586V102.5H600V121.5H586.207ZM600 93H620.69V64.5H600V93Z" fill="white"/>
<path d="M537.931 121.5V112H531.034V83.5H537.931V74H572.414V83.5H579.31V112H572.414V121.5H537.931ZM544.828 112H565.517V83.5H544.828V112Z" fill="white"/>
<path d="M496.552 83.5H503.448V93H496.552V121.5H482.759V74H496.552V83.5ZM524.138 74V83.5H503.448V74H524.138Z" fill="white"/>
<path d="M441.379 121.5V83.5H427.586V74H441.379V55H455.172V74H468.965V83.5H455.172V121.5H441.379Z" fill="white"/>
<path d="M372.414 121.5V112H365.517V83.5H372.414V74H413.793V83.5H379.31V112H413.793V121.5H372.414Z" fill="white"/>
<path d="M317.241 121.5V112H310.345V83.5H317.241V74H351.724V83.5H358.621V102.5H324.138V112H351.724V121.5H317.241ZM324.138 93H344.827V83.5H324.138V93Z" fill="white"/>
<path d="M262.069 121.5V112H275.862V64.5H268.965V55H289.655V112H303.448V121.5H262.069Z" fill="white"/>
<path d="M200 121.5V55H248.276V64.5H213.793V83.5H241.379V93H213.793V112H248.276V121.5H200Z" fill="white"/>
<g clip-path="url(#clip0_25_1577)">
<path fill-rule="evenodd" clip-rule="evenodd" d="M81 51.1995H59.1531C57.3325 51.0894 53.2456 50.4295 51.4621 48.67C49.2329 46.4705 27.6088 41.7414 15.7936 61.9771C9.66312 76.3473 -2.0183 110.411 0.300151 131.702C3.19821 158.317 28.0546 144.459 33.182 137.311C33.9168 136.286 34.7 135.131 35.5319 133.903C40.5051 126.563 47.2312 116.636 55.9206 116.636H81H106.079C114.769 116.636 121.495 126.563 126.468 133.903C127.3 135.131 128.083 136.286 128.818 137.311C133.945 144.459 158.802 158.317 161.7 131.702C164.018 110.411 152.337 76.3473 146.206 61.9771C134.391 41.7414 112.767 46.4705 110.538 48.67C108.754 50.4295 104.668 51.0894 102.847 51.1995H81Z" fill="#47C3FF"/>
<path fill-rule="evenodd" clip-rule="evenodd" d="M80.9999 64.1091H60.1359C58.3971 64.0302 54.494 63.5565 52.7908 62.2933C50.662 60.7143 30.0107 57.3194 18.7271 71.8462C12.8724 82.1625 1.71655 106.616 3.93069 121.901C6.69838 141.006 30.4366 131.059 35.3332 125.927C36.0351 125.192 36.7828 124.362 37.5775 123.48C42.327 118.211 48.7504 111.084 57.0488 111.084H80.9999H104.951C113.249 111.084 119.673 118.211 124.422 123.48C125.217 124.362 125.965 125.192 126.667 125.927C131.563 131.059 155.302 141.006 158.069 121.901C160.283 106.616 149.127 82.1625 143.273 71.8462C131.989 57.3194 111.338 60.7143 109.209 62.2933C107.506 63.5565 103.603 64.0302 101.864 64.1091H80.9999Z" fill="#007CB9"/>
<path fill-rule="evenodd" clip-rule="evenodd" d="M80.9998 52.6289H49.6786C38.0862 52.6289 14.7681 55.6204 14.233 83.4224C13.5642 118.175 22.6139 119.131 29.1691 117.955C34.1907 117.054 35.6225 114.973 37.2012 112.678C37.5501 112.171 37.9058 111.654 38.3093 111.136C40.7226 108.041 43.3251 107.067 50.7933 107.067H80.9998V52.6289ZM81.0001 52.6289H112.321C123.914 52.6289 147.232 55.6204 147.767 83.4224C148.436 118.175 139.386 119.131 132.831 117.955C127.809 117.054 126.377 114.973 124.799 112.678C124.45 112.171 124.094 111.654 123.691 111.136C121.277 108.041 118.675 107.067 111.207 107.067H81.0001V52.6289Z" fill="#1A243D"/>
<path fill-rule="evenodd" clip-rule="evenodd" d="M42.8792 69.3649C42.8792 67.8966 41.6871 66.7061 40.2162 66.7061H37.9626C36.492 66.7061 35.2996 67.8966 35.2996 69.3649V73.5051C35.2996 74.9737 34.1075 76.164 32.6366 76.164H28.3769C26.906 76.164 25.7139 77.3545 25.7139 78.8228V80.9834C25.7139 82.452 26.906 83.6423 28.3769 83.6423H32.6366C34.1075 83.6423 35.2996 84.8328 35.2996 86.3012V90.4415C35.2996 91.9099 36.492 93.1004 37.9626 93.1004H40.2162C41.6871 93.1004 42.8792 91.9099 42.8792 90.4415V86.3012C42.8792 84.8328 44.0716 83.6423 45.5422 83.6423H49.8022C51.2728 83.6423 52.4652 82.452 52.4652 80.9834V78.8228C52.4652 77.3545 51.2728 76.164 49.8022 76.164H45.5422C44.0716 76.164 42.8792 74.9737 42.8792 73.5051V69.3649Z" fill="white"/>
<path fill-rule="evenodd" clip-rule="evenodd" d="M124.694 73.7447C127.772 73.7447 130.267 71.2828 130.267 68.2459C130.267 65.209 127.772 62.7471 124.694 62.7471C121.616 62.7471 119.121 65.209 119.121 68.2459C119.121 71.2828 121.616 73.7447 124.694 73.7447ZM130.267 79.2435C130.267 82.2804 132.762 84.7423 135.84 84.7423C138.918 84.7423 141.413 82.2804 141.413 79.2435C141.413 76.2066 138.918 73.7447 135.84 73.7447C132.762 73.7447 130.267 76.2066 130.267 79.2435ZM130.267 90.2411C130.267 93.278 127.772 95.7399 124.694 95.7399C121.616 95.7399 119.121 93.278 119.121 90.2411C119.121 87.2042 121.616 84.7423 124.694 84.7423C127.772 84.7423 130.267 87.2042 130.267 90.2411ZM107.974 79.2435C107.974 82.2804 110.469 84.7423 113.547 84.7423C116.625 84.7423 119.121 82.2804 119.121 79.2435C119.121 76.2066 116.625 73.7447 113.547 73.7447C110.469 73.7447 107.974 76.2066 107.974 79.2435Z" fill="white"/>
<path d="M57.8154 113.776C65.2026 113.776 71.191 107.868 71.191 100.579C71.191 93.2904 65.2026 87.3818 57.8154 87.3818C50.4282 87.3818 44.4397 93.2904 44.4397 100.579C44.4397 107.868 50.4282 113.776 57.8154 113.776Z" fill="#1A243D"/>
<path d="M57.8153 109.377C62.7401 109.377 66.7324 105.438 66.7324 100.579C66.7324 95.7198 62.7401 91.7808 57.8153 91.7808C52.8905 91.7808 48.8982 95.7198 48.8982 100.579C48.8982 105.438 52.8905 109.377 57.8153 109.377Z" fill="white"/>
<path d="M104.185 113.776C111.572 113.776 117.56 107.868 117.56 100.579C117.56 93.2904 111.572 87.3818 104.185 87.3818C96.7973 87.3818 90.8088 93.2904 90.8088 100.579C90.8088 107.868 96.7973 113.776 104.185 113.776Z" fill="#1A243D"/>
<path d="M104.184 109.377C109.109 109.377 113.102 105.438 113.102 100.579C113.102 95.7198 109.109 91.7808 104.184 91.7808C99.2597 91.7808 95.2673 95.7198 95.2673 100.579C95.2673 105.438 99.2597 109.377 104.184 109.377Z" fill="white"/>
<path d="M54.8137 87.2298L89.2028 0L83.4713 59.8437L110.071 55.3517L67.0114 152L77.0048 82.5929L54.8137 87.2298Z" fill="#FEF234"/>
</g>
<defs>
<clipPath id="clip0_25_1577">
<rect width="162" height="152" fill="white"/>
</clipPath>
</defs>
</svg>
